<svg xmlns="http://www.w3.org/2000/svg" viewBox="0 0 520 360" role="img" aria-labelledby="heroTitle heroDesc">
  <title id="heroTitle">Illustration: Digital workflow</title>
  <desc id="heroDesc">Abstrakte Darstellung eines vernetzten Workflows</desc>
  <defs>
    <linearGradient id="grad" x1="0%" y1="0%" x2="100%" y2="100%">
      <stop offset="0%" stop-color="#0b6efd"/>
      <stop offset="100%" stop-color="#6fb5ff"/>
    </linearGradient>
  </defs>
  <rect width="520" height="360" rx="32" fill="rgba(11,110,253,0.08)"/>
  <g stroke="url(#grad)" stroke-width="6" stroke-linecap="round" fill="none">
    <path d="M80 120h140a20 20 0 0 1 20 20v120"/>
    <path d="M260 80v160a20 20 0 0 0 20 20h160"/>
    <path d="M120 220h80a20 20 0 0 1 20 20v40"/>
  </g>
  <g fill="#0b6efd">
    <circle cx="80" cy="120" r="18" opacity="0.8"/>
    <circle cx="260" cy="80" r="22" opacity="0.6"/>
    <circle cx="440" cy="260" r="26" opacity="0.7"/>
    <circle cx="220" cy="320" r="18" opacity="0.5"/>
  </g>
  <g fill="#fff" stroke="#0b6efd" stroke-width="4">
    <rect x="110" y="60" width="140" height="70" rx="14"/>
    <rect x="300" y="140" width="140" height="70" rx="14"/>
    <rect x="200" y="220" width="140" height="70" rx="14"/>
  </g>
</svg>
